<?xml version="1.0" encoding="UTF-8" standalone="no"?>
<!-- Created with Inkscape (http://www.inkscape.org/) -->

<svg
   xmlns:dc="http://purl.org/dc/elements/1.1/"
   xmlns:cc="http://creativecommons.org/ns#"
   xmlns:rdf="http://www.w3.org/1999/02/22-rdf-syntax-ns#"
   xmlns:svg="http://www.w3.org/2000/svg"
   xmlns="http://www.w3.org/2000/svg"
   xmlns:sodipodi="http://sodipodi.sourceforge.net/DTD/sodipodi-0.dtd"
   xmlns:inkscape="http://www.inkscape.org/namespaces/inkscape"
   width="1200"
   height="1200"
   viewBox="0 0 4251.9685 0"
   id="svg2"
   version="1.1"
   inkscape:version="0.91 r13725"
   sodipodi:docname="Dawnstar.svg"
   inkscape:export-filename="C:\Users\user1\OneDrive\Nexus Files\Artist's Resource\Hold Capital Symbol Vectors\Files\PNG\Artist's Resource - Dawnstar.png"
   inkscape:export-xdpi="755.99982"
   inkscape:export-ydpi="755.99982">
  <defs
     id="defs4" />
  <sodipodi:namedview
     id="base"
     pagecolor="#ffffff"
     bordercolor="#666666"
     borderopacity="1.0"
     inkscape:pageopacity="0.0"
     inkscape:pageshadow="2"
     inkscape:zoom="0.49497475"
     inkscape:cx="549.75972"
     inkscape:cy="592.84839"
     inkscape:document-units="px"
     inkscape:current-layer="layer1"
     showgrid="false"
     borderlayer="true"
     inkscape:showpageshadow="false"
     units="px"
     inkscape:window-width="1920"
     inkscape:window-height="1027"
     inkscape:window-x="-5"
     inkscape:window-y="-5"
     inkscape:window-maximized="1" />
  <metadata
     id="metadata7">
    <rdf:RDF>
      <cc:Work
         rdf:about="">
        <dc:format>image/svg+xml</dc:format>
        <dc:type
           rdf:resource="http://purl.org/dc/dcmitype/StillImage" />
        <dc:title></dc:title>
      </cc:Work>
    </rdf:RDF>
  </metadata>
  <g
     inkscape:groupmode="layer"
     id="layer2"
     inkscape:label="Background"
     sodipodi:insensitive="true">
    <rect
       style="opacity:1;fill:#cccccc;fill-opacity:1;fill-rule:nonzero;stroke:none;stroke-width:10;stroke-linecap:round;stroke-linejoin:round;stroke-miterlimit:4;stroke-dasharray:none;stroke-opacity:1"
       id="rect4135"
       width="1200"
       height="1200"
       x="0"
       y="0" />
  </g>
  <g
     inkscape:label="Dawnstar"
     inkscape:groupmode="layer"
     id="layer1"
     transform="translate(0,-52.3622)">
    <path
       style="display:inline;opacity:1;fill:#ffffff;fill-opacity:1;fill-rule:evenodd;stroke:none;stroke-width:1px;stroke-linecap:butt;stroke-linejoin:miter;stroke-opacity:1"
       d="m 600.00767,52.362127 -89.49027,373.704943 16.3651,22.95374 -50.0449,68.90156 33.3115,33.31144 c 1.4888,-1.30004 2.9953,-2.58107 4.5401,-3.81508 -1.5341,1.24527 -3.0496,2.51463 -4.5286,3.82659 l -0.012,-0.0115 c -2.0034,1.74938 -3.966,3.54414 -5.8636,5.40901 l -0.01,-0.006 c -4.6825,4.71103 -9.0085,9.75796 -12.9471,15.09919 -1.3129,1.78037 -2.5841,3.59351 -3.8093,5.43777 0.2796,-0.41341 0.5503,-0.83263 0.8344,-1.24291 0.9638,-1.41785 1.9595,-2.81405 2.9749,-4.19486 1.0646,-1.44767 2.1516,-2.87801 3.2742,-4.28119 0.2764,-0.35431 0.5545,-0.70723 0.8344,-1.05877 0.015,-0.0177 0.032,-0.0338 0.046,-0.0518 1.0812,-1.32286 2.1833,-2.62546 3.3144,-3.90714 L 465.5545,529.18897 396.6587,579.23956 373.6992,562.86868 0,652.359 l 373.705,89.49031 22.9537,-16.36513 68.9016,50.04484 33.3057,-33.30569 c 1.7484,2.00232 3.5451,3.96132 5.409,5.85787 4.711,4.68255 9.758,9.00848 15.0992,12.94709 1.7804,1.31288 3.5935,2.58416 5.4378,3.80933 -0.4135,-0.2796 -0.8327,-0.55035 -1.243,-0.83439 -1.4178,-0.96382 -2.814,-1.95948 -4.1948,-2.97494 -1.4477,-1.0646 -2.878,-2.15154 -4.2812,-3.27418 -0.3543,-0.27635 -0.7073,-0.55447 -1.0588,-0.83436 -0.018,-0.0147 -0.034,-0.0316 -0.052,-0.0461 -1.3229,-1.08128 -2.6255,-2.18336 -3.9071,-3.31446 l -33.248,33.24263 50.0506,68.89582 -16.3709,22.95952 89.49032,373.70504 89.49032,-373.70504 -16.36514,-22.95378 50.04484,-68.90156 -33.31143,-33.31143 c -1.48882,1.30003 -2.99533,2.58106 -4.54013,3.8151 1.53408,-1.2453 3.04963,-2.51463 4.52861,-3.82659 l 0.0115,0.0115 c 2.00341,-1.74939 3.96603,-3.54411 5.86358,-5.40899 4.68255,-4.71104 9.00849,-9.75796 12.94709,-15.09919 1.31288,-1.78038 2.58416,-3.59355 3.80933,-5.4378 -0.27959,0.41341 -0.55032,0.83262 -0.83436,1.24294 -0.96381,1.41782 -1.95951,2.81404 -2.97497,4.19486 -1.0646,1.44767 -2.15154,2.87798 -3.27418,4.28116 -0.27635,0.35431 -0.55447,0.70726 -0.83436,1.0588 -0.0147,0.0177 -0.0316,0.0338 -0.046,0.0518 -1.08128,1.32286 -2.18335,2.62549 -3.31445,3.90717 l 33.24237,33.24812 68.89579,-50.05058 22.95952,16.37087 373.70505,-89.49031 -373.70505,-89.49032 -22.95374,16.36514 -68.90157,-50.04485 -33.31143,33.31144 c 1.30003,1.48882 2.58106,2.99532 3.81507,4.54013 -1.24526,-1.53408 -2.51463,-3.04963 -3.82659,-4.52861 l 0.0115,-0.0115 c -1.74762,-2.00137 -3.54043,-3.96209 -5.40327,-5.85784 l -0.006,-0.006 c -4.70938,-4.68037 -9.7544,-9.00436 -15.09344,-12.94135 -1.78038,-1.31288 -3.59352,-2.58416 -5.43777,-3.80933 0.41341,0.2796 0.83262,0.55032 1.24293,0.83436 1.41783,0.96382 2.81402,1.95951 4.19484,2.97497 1.44766,1.0646 2.87801,2.15154 4.28119,3.27418 0.3543,0.27635 0.70723,0.55447 1.05877,0.83436 0.0177,0.0147 0.0338,0.0316 0.0518,0.046 1.32287,1.08128 2.62546,2.18336 3.90714,3.31446 L 723.17263,517.92211 673.12204,449.02632 689.49292,426.06681 600.00261,52.361867 Z M 495.0614,737.67774 c 1.2453,1.53411 2.5146,3.04957 3.8266,4.52861 l -0.012,0.0115 c -1.3001,-1.4888 -2.5811,-2.9953 -3.8151,-4.5401 z"
       id="path4159-4"
       inkscape:connector-curvature="0"
       sodipodi:nodetypes="cccccccccccccccccccccccccccsccccccccccccccccccccccscccccccccccccccccsccscccccccccccccc" />
    <path
       style="display:inline;opacity:1;fill:#0062ba;fill-opacity:1;fill-rule:evenodd;stroke:none;stroke-width:1px;stroke-linecap:butt;stroke-linejoin:miter;stroke-opacity:1"
       d="m 600.00305,52.36216 -89.49032,373.70495 16.36513,22.95374 -50.04484,68.90156 33.31144,33.31144 c 1.48882,-1.30004 2.99532,-2.58107 4.54012,-3.81508 -1.53407,1.24527 -3.04962,2.51463 -4.5286,3.82659 l -0.0115,-0.0115 c -2.00341,1.74938 -3.96604,3.54414 -5.86359,5.40901 l -0.006,-0.006 c -4.68255,4.71103 -9.00849,9.75796 -12.94709,15.09919 -1.31288,1.78037 -2.58416,3.59351 -3.80933,5.43777 0.27959,-0.41341 0.55035,-0.83263 0.83439,-1.24291 0.96381,-1.41785 1.95948,-2.81405 2.97494,-4.19486 1.0646,-1.44767 2.15154,-2.87801 3.27418,-4.28119 0.27635,-0.35431 0.55447,-0.70723 0.83436,-1.05877 0.0147,-0.0177 0.0316,-0.0338 0.0461,-0.0518 1.08128,-1.32286 2.18336,-2.62546 3.31445,-3.90714 L 465.55449,529.18901 396.6587,579.2396 373.69918,562.86872 0,652.35904 l 373.70493,89.49031 22.95377,-16.36513 68.90156,50.04484 33.30569,-33.30569 c 1.74847,2.00232 3.54512,3.96132 5.40899,5.85787 4.71106,4.68255 9.75799,9.00848 15.09919,12.94709 1.78041,1.31288 3.59352,2.58416 5.4378,3.80933 -0.41341,-0.2796 -0.83262,-0.55035 -1.24294,-0.83439 -1.41782,-0.96382 -2.81404,-1.95948 -4.19486,-2.97494 -1.44767,-1.0646 -2.87798,-2.15154 -4.28116,-3.27418 -0.35431,-0.27635 -0.70726,-0.55447 -1.0588,-0.83436 -0.0177,-0.0147 -0.0338,-0.0316 -0.0518,-0.0461 -1.32287,-1.08128 -2.62546,-2.18336 -3.90714,-3.31446 l -33.24795,33.24263 50.05058,68.89582 -16.37088,22.95952 89.49032,373.705 89.49032,-373.705 -16.36514,-22.95378 50.04484,-68.90156 -33.31143,-33.31143 c -1.48882,1.30003 -2.99533,2.58106 -4.54013,3.8151 1.53408,-1.2453 3.04963,-2.51463 4.52861,-3.82659 l 0.0115,0.0115 c 2.00341,-1.74939 3.96603,-3.54411 5.86358,-5.40899 4.68255,-4.71104 9.00849,-9.75796 12.94709,-15.09919 1.31288,-1.78038 2.58416,-3.59355 3.80933,-5.4378 -0.27959,0.41341 -0.55032,0.83262 -0.83436,1.24294 -0.96381,1.41782 -1.95951,2.81404 -2.97497,4.19486 -1.0646,1.44767 -2.15154,2.87798 -3.27418,4.28116 -0.27635,0.35431 -0.55447,0.70726 -0.83436,1.0588 -0.0147,0.0177 -0.0316,0.0338 -0.046,0.0518 -1.08128,1.32286 -2.18335,2.62549 -3.31445,3.90717 l 33.24237,33.24812 68.89579,-50.05058 22.95952,16.37087 373.70497,-89.49031 -373.70497,-89.49032 -22.95374,16.36514 -68.90157,-50.04485 -33.31143,33.31144 c 1.30003,1.48882 2.58106,2.99532 3.81507,4.54013 -1.24526,-1.53408 -2.51463,-3.04963 -3.82659,-4.52861 l 0.0115,-0.0115 c -1.74762,-2.00137 -3.54043,-3.96209 -5.40327,-5.85784 l -0.006,-0.006 c -4.70938,-4.68037 -9.7544,-9.00436 -15.09344,-12.94135 -1.78038,-1.31288 -3.59352,-2.58416 -5.43777,-3.80933 0.41341,0.2796 0.83262,0.55032 1.24293,0.83436 1.41783,0.96382 2.81402,1.95951 4.19484,2.97497 1.44766,1.0646 2.87801,2.15154 4.28119,3.27418 0.3543,0.27635 0.70723,0.55447 1.05877,0.83436 0.0177,0.0147 0.0338,0.0316 0.0518,0.046 1.32287,1.08128 2.62546,2.18336 3.90714,3.31446 L 723.17281,517.92215 673.12222,449.02636 689.4931,426.06685 600.00279,52.3619 Z m 0,74.99533 70.21352,293.20279 -8.79827,12.34288 0,0.006 -11.20354,15.71491 -6.15131,8.63138 -0.006,-0.006 -42.58154,59.71775 c -0.49093,-0.0206 -0.98197,-0.041 -1.47309,-0.0575 -0.49529,0.005 -0.98945,0.0356 -1.48462,0.046 l 0.006,0.006 c -1.60146,0.0166 -3.19956,0.0789 -4.79332,0.16687 1.59474,-0.09 3.19045,-0.13903 4.78754,-0.17262 l -36.36117,-50.99431 6.84758,-9.49452 30.99821,43.48496 37.17829,-52.16241 6.15706,-8.63715 0.006,0.006 11.1978,-15.71491 4.54587,-6.36998 -59.08479,-246.73133 -59.0848,246.73133 4.54588,6.36998 5.01773,7.03171 -6.79004,9.46002 -5.07527,-7.07199 -0.0288,0.0403 -8.79827,-12.34288 70.21353,-293.20279 z m 0,113.9632 38.23709,159.68085 -38.23709,-52.64002 -38.2371,52.64002 38.2371,-159.68085 z m 0,138.17138 37.09775,51.06911 -6.11681,8.57384 -30.98094,-43.27781 -37.18405,51.93222 -6.87059,9.46577 -38.78376,53.38808 21.27354,21.27928 0.006,0 4.89111,4.8911 -11.72142,6.68645 -4.84509,-4.84508 c -0.0246,0.0159 -0.0502,0.0301 -0.0748,0.046 l -24.47289,-24.59374 47.63955,-65.58136 6.8073,-9.37944 43.33536,-59.65447 z m 56.40903,77.65957 41.37317,56.9557 -24.42684,24.54769 -0.0748,-0.046 -5.46656,5.46655 -5.4608,5.46078 -6.09952,6.09952 -5.32269,5.32269 -18.16045,18.1547 20.23774,20.23775 20.23775,20.23774 17.44691,-17.44691 5.89815,12.50401 -14.14398,14.14398 -9.20108,9.20108 -9.20108,-9.20108 -20.232,-20.232 -0.006,-0.006 -20.23775,-20.23775 -9.20108,-9.20108 9.20108,-9.20104 11.95735,-11.95738 8.51058,-8.51056 6.31818,-6.31817 5.62191,-5.62191 0.006,0 5.62194,-5.62768 21.23323,-21.23323 -32.54036,-44.79696 6.111,-8.69468 z m -62.74448,59.97669 c -1.77993,0.10135 -3.55925,0.23127 -5.33421,0.4028 0.16322,-0.0147 0.32576,-0.0376 0.48913,-0.0518 l 0.0115,0 c 1.60891,-0.14127 3.21891,-0.26107 4.83359,-0.35101 z m 6.33545,14.77119 c 13.21124,0.0884 26.31796,2.3492 38.79525,6.69222 l -6.59438,6.59439 c -9.91594,-3.01943 -20.20296,-4.64805 -30.56666,-4.83935 -15.69305,-0.20004 -31.25302,2.89943 -45.67161,9.09749 l -12.21629,6.19159 c -8.37847,4.82151 -16.09768,10.70713 -22.96526,17.51022 l 26.21066,26.20492 20.23774,-20.23775 -17.44691,-17.44691 12.50401,-5.89814 14.14398,14.14401 9.20108,9.20104 -9.20108,9.20108 -20.23775,20.23775 -0.006,-0.006 -20.24352,20.24349 -9.20105,9.20108 -9.20108,-9.20108 -11.95738,-11.95735 -8.51055,-8.51055 -6.31818,-6.31821 -5.6219,-5.6219 0,-0.006 -5.62768,-5.62194 -21.23324,-21.23323 -44.79695,32.54039 -8.69469,-6.11103 56.95571,-41.37316 24.54769,24.42683 -0.046,0.0748 5.46655,5.46656 5.46078,5.46081 6.09954,6.09951 5.3227,5.32269 18.1547,18.16045 20.23775,-20.23774 -26.19917,-26.20492 -0.006,-0.006 c -4.03347,4.13818 -7.74068,8.58223 -11.08849,13.29235 l -6.06498,-6.06501 c 3.42841,-4.64268 7.18606,-9.03297 11.24384,-13.13697 l 0.006,0.006 c 6.85336,-6.79257 14.498,-12.73714 22.76961,-17.70585 l 12.01492,-6.39298 c 15.77304,-7.33718 32.94811,-11.17111 50.34406,-11.2381 z m 138.25194,22.67757 65.58137,47.63954 9.37944,6.80731 59.65446,43.33535 -51.06911,37.09775 -8.57383,-6.11678 43.27781,-30.98097 -51.93223,-37.18405 -9.46576,-6.87058 -53.38808,-38.78377 -21.27925,21.27354 0,0.006 -4.89114,4.89114 -6.68645,-11.72145 4.84509,-4.84509 c -0.0147,-0.0236 -0.0301,-0.05 -0.0461,-0.0748 l 24.59373,-24.47288 z m -66.26034,1.41555 c 4.64051,3.42679 9.02888,7.18247 13.13123,11.23807 l 0.006,0.006 c 6.79018,6.85188 12.73281,14.49461 17.70011,22.76389 l 6.39301,12.01489 c 7.33717,15.77304 11.17107,32.94811 11.23807,50.34406 -0.0884,13.21124 -2.3492,26.31796 -6.69223,38.79525 l -6.59438,-6.59438 c 3.01942,-9.91594 4.64804,-20.20295 4.83934,-30.56665 0.20004,-15.69305 -2.89943,-31.253 -9.09749,-45.67159 l -6.19158,-12.21632 c -4.82016,-8.37612 -10.70381,-16.09338 -17.50448,-22.95952 0,0 -0.006,-0.006 -0.006,-0.006 -4.13653,-4.03123 -8.5787,-7.73647 -13.28661,-11.08272 l 6.06501,-6.06498 z m -303.79639,26.15312 12.34292,8.79828 0.006,0 15.71488,11.20354 8.63141,6.1513 -0.006,0.006 59.71775,42.58154 c -0.0206,0.49092 -0.041,0.98196 -0.0575,1.47309 0.006,0.49528 0.0357,0.98944 0.046,1.48461 l 0.006,-0.006 c 0.0177,1.60146 0.0791,3.19956 0.16687,4.79333 -0.0901,-1.59474 -0.13906,-3.19045 -0.17265,-4.78755 l -50.99428,36.36117 -9.49454,-6.84754 43.48499,-30.99824 -52.16242,-37.1783 -8.63714,-6.15705 0.006,-0.006 -15.71488,-11.19779 -6.36997,-4.54587 -246.73135,59.08479 246.73135,59.08479 6.36997,-4.54587 7.03171,-5.01771 9.45999,6.79001 -7.07199,5.07528 0.0403,0.0345 -12.34292,8.79827 -293.20277,-70.21356 0,-0.006 293.20277,-70.21353 z m 463.6038,0 293.20284,70.21353 -293.20284,70.21353 -12.34289,-8.79828 -0.006,0 -15.71492,-11.20354 -8.63137,-6.15131 0.006,-0.006 -59.71775,-42.58157 c 0.0206,-0.49092 0.041,-0.98196 0.0575,-1.47309 -0.006,-0.49528 -0.0357,-0.98942 -0.0461,-1.48458 l -0.006,0.006 c -0.0177,-1.60146 -0.0791,-3.19952 -0.16687,-4.79329 0.0901,1.59474 0.13903,3.19042 0.17261,4.78755 l 50.99431,-36.36121 9.49452,6.84758 -43.48496,30.99821 52.16241,37.1783 8.63715,6.15708 -0.006,0.006 15.71491,11.1978 6.36997,4.54587 246.73132,-59.08479 -246.73132,-59.08479 -6.36997,4.54587 -7.03172,5.01773 -9.46001,-6.79004 7.07198,-5.07527 -0.0403,-0.0288 12.34289,-8.79828 z m -231.79901,11.33591 29.43882,29.4388 0.006,0.006 29.43308,29.43305 -29.4446,29.43882 0,0.006 -29.43879,29.43882 -29.43882,-29.44457 -0.006,0 -29.43882,-29.43882 29.44457,-29.43882 0.006,0 29.43883,-29.4388 z m -113.77907,20.08237 6.59438,6.59438 c -3.01942,9.91594 -4.64804,20.20295 -4.83934,30.56665 -0.20004,15.69305 2.89943,31.25302 9.09749,45.67162 l 6.19161,12.21629 c 4.82152,8.37847 10.70711,16.09768 17.51023,22.96526 l 26.20492,-26.21066 -20.23775,-20.23775 -17.44694,17.44692 -5.89811,-12.50402 14.14397,-14.14398 9.20108,-9.20107 9.20105,9.20107 20.23774,20.23775 20.24352,20.24352 9.20105,9.20105 -9.20105,9.20108 -11.95737,11.95735 -8.51056,8.51058 -6.31817,6.31818 -5.62191,5.6219 -0.006,0 -5.6219,5.62768 -21.23323,21.23323 32.54035,44.79696 -6.11103,8.69468 -41.37316,-56.9557 24.42686,-24.54772 0.0748,0.046 5.46655,-5.46655 5.46078,-5.46081 6.09954,-6.09951 5.3227,-5.3227 18.16045,-18.1547 -20.23775,-20.23775 -26.21066,26.20492 c 4.13815,4.03344 8.5822,7.74071 13.29233,11.08846 l -6.06499,6.06501 c -4.64268,-3.42841 -9.03297,-7.18606 -13.13697,-11.24384 -6.79257,-6.85335 -12.73718,-14.49799 -17.70588,-22.76961 l -6.39299,-12.01492 c -7.33717,-15.77304 -11.1711,-32.94811 -11.23806,-50.34405 0.0884,-13.21125 2.34916,-26.31796 6.69219,-38.79525 z m -137.58446,0.55818 -52.64002,38.23707 52.64002,38.2371 -159.68083,-38.2371 159.68083,-38.23707 z m 502.72131,0 159.68087,38.23707 -159.68087,38.2371 52.63998,-38.2371 -52.63998,-38.23707 z m -473.16166,1.13932 8.57386,6.1168 -43.27781,30.98095 51.93222,37.18407 9.46577,6.87059 53.38805,38.78373 21.27928,-21.2735 0,-0.006 4.89114,-4.8911 6.68645,11.72142 -4.84509,4.84508 c 0.0147,0.0236 0.0301,0.0501 0.046,0.0748 l -24.59371,24.47288 -65.58136,-47.63955 -9.37944,-6.80727 -59.65447,-43.33538 51.06909,-37.09775 z m 356.63203,25.42809 c 0.0147,0.16322 0.0377,0.32576 0.0518,0.48913 l 0,0.0115 c 0.14142,1.60891 0.26103,3.21888 0.35101,4.83357 -0.10135,-1.77994 -0.23128,-3.55926 -0.40281,-5.33422 z m -270.06486,18.0051 c 0.10135,1.77994 0.23127,3.55926 0.4028,5.33421 -0.0147,-0.16322 -0.0376,-0.32576 -0.0518,-0.48912 l 0,-0.0115 c -0.14142,-1.60891 -0.26103,-3.21891 -0.35101,-4.8336 z m 208.48274,8.03295 9.20108,9.20107 11.95735,11.95738 8.51055,8.51056 6.31818,6.31817 5.62193,5.62191 0,0.006 5.62766,5.62193 21.23323,21.23323 44.79695,-32.54036 8.69469,6.11104 -56.95571,41.37313 -24.54768,-24.42683 0.046,-0.0748 -5.46656,-5.46655 -5.46081,-5.46081 -6.09951,-6.09951 -5.32269,-5.3227 -18.15471,-18.16045 -20.23775,20.23775 26.20492,26.21066 c 4.03344,-4.13818 7.74066,-8.58223 11.08846,-13.29236 l 6.06499,6.06502 c -3.42842,4.64268 -7.18604,9.03297 -11.24382,13.13697 -6.85335,6.79257 -14.49802,12.73717 -22.76963,17.70588 l -12.01489,6.39299 c -15.77304,7.33717 -32.94811,11.17107 -50.34406,11.23806 -13.21124,-0.0884 -26.31796,-2.34916 -38.79525,-6.69219 l 6.59438,-6.59439 c 9.91594,3.01943 20.20295,4.64805 30.56665,4.83935 15.69305,0.20004 31.253,-2.89946 45.67159,-9.09749 l 12.21632,-6.19161 c 8.37847,-4.82152 16.09768,-10.70714 22.96526,-17.51023 l -26.21069,-26.20492 -20.23774,20.23775 17.44694,17.44694 -12.50402,5.89811 -14.14397,-14.14397 -9.20108,-9.20108 9.20108,-9.20105 20.23774,-20.23775 20.24349,-20.24352 9.20108,-9.20107 z m -178.19229,70.9501 c 1.24526,1.53411 2.51459,3.04957 3.82656,4.52861 l -0.0115,0.0115 c -1.30003,-1.4888 -2.58106,-2.9953 -3.81507,-4.5401 z m 173.32994,23.54643 4.84509,4.84508 c 0.0236,-0.0147 0.0501,-0.0301 0.0748,-0.046 l 24.47288,24.59374 -47.63954,65.58133 -6.80731,9.37947 -43.33535,59.65444 -37.09775,-51.06908 6.11678,-8.57387 30.98097,43.27781 37.18404,-51.93222 6.87059,-9.46576 38.78374,-53.38806 -21.27351,-21.27928 -0.006,0 -4.89114,-4.89113 11.72145,-6.68645 z m -56.7198,25.96901 c -0.16322,0.0147 -0.32573,0.0376 -0.4891,0.0518 l -0.0115,0 c -1.60891,0.14142 -3.21888,0.26103 -4.83357,0.35101 1.77994,-0.10135 3.55923,-0.23125 5.33419,-0.40277 z m -5.3975,0.40277 c -1.59474,0.0901 -3.19045,0.13906 -4.78755,0.17265 l 36.36121,50.99428 -6.84758,9.49455 -30.99821,-43.48499 -37.1783,52.16241 -6.15708,8.63715 -0.006,-0.006 -11.1978,15.71488 -4.54587,6.36997 59.08479,246.73141 59.08476,-246.73141 -4.54584,-6.36997 -5.01773,-7.03171 6.79004,-9.45999 5.07524,7.07199 0.0288,-0.0403 8.79828,12.34288 -70.21353,293.20281 -70.21353,-293.20281 8.79825,-12.34288 0,-0.006 11.20357,-15.71489 6.1513,-8.6314 0.006,0.006 42.58157,-59.71775 c 0.49092,0.0206 0.98196,0.041 1.47309,0.0575 0.49528,-0.006 0.98942,-0.0357 1.48458,-0.046 l -0.006,-0.006 c 1.60145,-0.0177 3.19952,-0.0791 4.79329,-0.1669 z m -44.50923,116.12682 38.2371,52.64002 38.23707,-52.64002 -38.23707,159.68079 -38.2371,-159.68079 z"
       id="path4159"
       inkscape:connector-curvature="0" />
  </g>
</svg>
